<?xml version="1.0" encoding="UTF-8"?>
<svg xmlns="http://www.w3.org/2000/svg" xmlns:xlink="http://www.w3.org/1999/xlink"
width="248px" height="50px" style="background-color: transparent">
	<g transform="translate(0, 5)">
	<g transform="translate(-20, 0)">
		<circle cx="32" cy="-1" r="3" fill="red" />
		<circle cx="42" cy="-1" r="3" fill="red" />
		<path fill="red" d="M50.831,40.964c0,0-7.649-35.696-7.814-36.591c-0.166-0.894,0.132-1.226,0.132-1.226H30.665
		c0.43,0.332,0.132,1.192,0.132,1.192s-8.079,35.3-8.344,36.426c-0.265,1.125-0.861,1.357-0.861,1.357s5.662,0,11.755,0
		c-0.298-0.265-0.232-1.093-0.232-1.093l0.762-5.166h5.828c0,0,0.596,4.206,0.695,5.133s-0.232,1.126-0.232,1.126s7.053,0,11.391,0
		C51.129,41.958,50.831,40.964,50.831,40.964z M34.97,28.745l1.888-12.583l1.821,12.583H34.97z"/>
		<path fill="black" d="M70.302,21.989c0,0,6.888-0.761,6.656-9.603c-0.331-9.669-12.219-9.173-12.219-9.173H51.726
		c0.298,0.331,0.397,1.457,0.397,1.457s0,35.333,0,36.062s-0.364,1.457-0.364,1.457s10.762,0,14.471,0s12.352-1.59,12.12-10.696
		S70.302,21.989,70.302,21.989z M66.825,14.671c0.199,4.239-3.676,3.941-3.94,3.941c0-3.875-0.066-7.517-0.066-7.517
		S66.627,10.433,66.825,14.671z M62.786,33.712v-8.014c0,0,4.404-0.729,4.404,4.04S62.786,33.712,62.786,33.712z"/>
		<path fill="black" d="M92.688,16.427c-2.055-1.646-3.113-4.636,0.729-4.967c4.072,0.032,6.722,2.649,6.722,2.649V3.81
		c-0.298,0.265-0.794,0.298-1.424,0.033s-2.053-0.794-3.577-1.093c-4.9-0.927-8.775,0.166-11.027,1.821
		c-2.251,1.656-3.841,3.411-4.106,8.875c-0.265,5.464,2.037,7.795,5.199,10.961c3.702,2.837,4.769,3.874,5.729,5.066
		c1.126,1.126,1.192,3.741-2.517,4.106c-3.841,0.132-8.377-3.841-8.377-3.841s0,5.63,0,11.093c0.397-0.265,1.093,0,2.616,0.828
		c3.676,2.053,10.53,2.053,14.868-0.894c4.338-2.947,5.696-10.199,4.404-14.504C100.635,21.957,96.229,19.261,92.688,16.427z"/>
		<path fill="black" d="M117.589,2.353c0,0-14.454-2.022-14.454,20.23c0,22.251,14.454,20.457,14.454,20.457
		s14.484,1.257,14.484-20.457C132.073,0.868,117.589,2.353,117.589,2.353z M117.589,33.901c0,0-3.461,1.332-3.461-11.318
		c0-12.651,3.461-11.657,3.461-11.657s3.293-0.986,3.293,11.657C120.882,35.226,117.589,33.901,117.589,33.901z"/>
		<path fill="black" d="M145.306,33.017c0,0,0-27.518,0-28.478s0.298-1.358,0.298-1.358h-11.557
		c0.497,0.696,0.364,1.457,0.364,1.457s0,34.472,0,35.863c0,1.391-0.364,1.589-0.364,1.589h19.107c0,0,0-7.152,0-9.471
		c-0.331,0.331-1.391,0.397-1.391,0.397H145.306z"/>
		<path fill="black" d="M170.539,4.737v26.624c0,0,0.05,2.815-2.764,2.815s-3.104-2.815-3.104-2.815s0-25.696,0-26.789
		s0.364-1.391,0.364-1.391h-11.251c0.298,0.166,0.431,1.391,0.431,1.391v26.789c0,0,0.274,11.689,13.354,11.689
		s13.27-11.755,13.27-11.755s0-26.027,0-26.79c0-0.761,0.332-1.258,0.332-1.258s-7.286,0-11.06,0
		C170.473,3.645,170.539,4.737,170.539,4.737z"/>
		<path fill="black" d="M182.427,12.651c0.563-0.364,1.424-0.331,1.424-0.331h4.934c0,0,0,27.286,0,28.379
		s-0.331,1.424-0.331,1.424s8.146,0,11.59,0c-0.364-0.364-0.364-1.49-0.364-1.49V12.32c0,0,4.206,0,5.034,0
		s1.258,0.331,1.258,0.331V3.214h-23.544V12.651z"/>
	</g>
	<g transform="translate(190, -5) scale(0.11)">
		<path fill="gray" d="M112.155,67.644h84.212v236.019c0,106.375-50.969,143.497-132.414,143.497c-19.944,0-45.429-3.324-62.052-8.864    
		l9.419-68.146c11.635,3.878,26.594,6.648,43.214,6.648c35.458,0,57.621-16.068,57.621-73.687V67.644z"/>
		<path fill="lightgray" d="M269.484,354.634c22.161,11.635,57.62,23.27,93.632,23.27c38.783,0,59.282-16.066,59.282-40.998    
		c0-22.715-17.729-36.565-62.606-52.079c-62.053-22.162-103.05-56.512-103.05-111.36c0-63.715,53.741-111.917,141.278-111.917    
		c42.662,0,73.132,8.313,95.295,18.838l-18.839,67.592c-14.404-7.201-41.553-17.729-77.562-17.729    
		c-36.567,0-54.297,17.175-54.297,36.013c0,23.824,20.499,34.349,69.256,53.188c65.928,24.378,96.4,58.728,96.4,111.915    
		c0,62.606-47.647,115.794-150.143,115.794c-42.662,0-84.77-11.636-105.82-23.27L269.484,354.634z"/>
	</g>
	</g>
</svg>